<svg width="21" height="21" viewBox="0 0 21 21" fill="none" xmlns="http://www.w3.org/2000/svg">
<path fill-rule="evenodd" clip-rule="evenodd" d="M11.2902 15.294C11.399 15.3484 11.5035 15.4007 11.5996 15.4539C11.6428 15.4778 11.6843 15.5018 11.7237 15.5262C11.7325 15.5307 11.7414 15.5362 11.7503 15.5417C11.7591 15.5473 11.768 15.5528 11.7768 15.5573C11.9275 15.6326 12.0694 15.6681 12.2156 15.6681C12.5835 15.6681 12.814 15.4376 12.8893 15.3622L14.4051 13.8464L14.406 13.8455L14.4074 13.8442C14.5582 13.694 14.7965 13.514 15.0744 13.514C15.0774 13.514 15.0803 13.514 15.0833 13.5141C15.3541 13.5177 15.5767 13.6885 15.7126 13.8376L18.1636 16.2886C18.1651 16.29 18.1666 16.2915 18.1681 16.293V16.293C18.17 16.2949 18.1726 16.2975 18.1745 16.2994C18.3941 16.5205 18.5046 16.7448 18.5066 16.9711C18.5086 17.2042 18.3956 17.4394 18.1681 17.6758L18.1669 17.6771L18.1645 17.6797C18.0237 17.831 17.8799 17.9708 17.7284 18.1182L17.6273 18.2166L17.6231 18.2206C17.4495 18.3862 17.2744 18.5567 17.1025 18.7369C16.9936 18.8511 16.886 18.9692 16.7809 19.0925C16.7779 19.096 16.7749 19.0995 16.7719 19.103C16.7668 19.1085 16.7616 19.114 16.7564 19.1195C16.6891 19.1903 16.62 19.2554 16.5488 19.315C16.541 19.3215 16.5332 19.3279 16.5254 19.3343C16.1317 19.6549 15.674 19.8077 15.1054 19.8077H15.101C15.0358 19.8077 14.9666 19.8076 14.9015 19.8033L14.898 19.8031C14.8914 19.8026 14.8849 19.8022 14.8784 19.8018C13.5708 19.7131 12.3565 19.2024 11.4444 18.7662L11.4408 18.7644C11.438 18.7631 11.4352 18.7617 11.4325 18.7604C8.92882 17.5463 6.73011 15.8242 4.90251 13.6426C4.90045 13.6401 4.89839 13.6376 4.89632 13.6351L4.89377 13.632C3.38724 11.8144 2.3793 10.1332 1.71134 8.32835C1.30073 7.2288 1.14948 6.37053 1.21426 5.56201C1.21446 5.55956 1.21466 5.5571 1.21486 5.55464V5.55464C1.25909 5.03712 1.4579 4.60703 1.82436 4.23965L1.82657 4.23744L3.33795 2.72606L3.34181 2.72244C3.34358 2.72079 3.34535 2.71914 3.34713 2.7175C3.55877 2.52171 3.78276 2.41424 4.00278 2.41143C4.00573 2.41139 4.00869 2.41137 4.01164 2.41137C4.28506 2.41137 4.50747 2.57285 4.64977 2.71273C4.6528 2.7157 4.65579 2.71867 4.65874 2.72162L4.67204 2.73492C4.67448 2.7372 4.67692 2.73948 4.67936 2.74177C4.94029 2.98596 5.18905 3.2385 5.44959 3.50738C5.45397 3.51191 5.45836 3.51644 5.46276 3.52098C5.46512 3.52341 5.46748 3.52585 5.46984 3.52828C5.53904 3.59972 5.60937 3.67116 5.68026 3.74316C5.74935 3.81335 5.81908 3.88417 5.88871 3.95596L5.89089 3.95821L7.10088 5.1682C7.57069 5.63801 7.57069 6.07236 7.10088 6.54218L7.09867 6.54439C7.05642 6.58666 7.01464 6.62893 6.97302 6.67103C6.89029 6.75473 6.80818 6.83779 6.72422 6.91899C6.72272 6.92044 6.72122 6.92189 6.71971 6.92334L6.71848 6.92461C6.38739 7.26356 6.07029 7.58149 5.73286 7.89088C5.69132 7.92898 5.64946 7.96694 5.60723 8.0048C5.6041 8.00793 5.60097 8.01051 5.59803 8.01293C5.59267 8.01734 5.58793 8.02124 5.58507 8.02696C5.2039 8.40813 5.27482 8.78043 5.3546 9.03307L5.3679 9.07296C5.39495 9.1385 5.42296 9.20372 5.45198 9.26872C5.7604 9.95955 6.18345 10.6264 6.79889 11.408V11.408L6.80393 11.4132C6.8059 11.4156 6.80787 11.418 6.80984 11.4204C8.03137 12.9239 9.31927 14.0961 10.7397 14.9944C10.7416 14.9956 10.7436 14.9968 10.7455 14.998C10.749 15.0002 10.7525 15.0024 10.756 15.0046C10.9285 15.1127 11.1047 15.2012 11.2732 15.2855C11.2771 15.2874 11.281 15.2894 11.2849 15.2913L11.2902 15.294ZM7.65342 10.5548C7.65471 10.5565 7.656 10.5581 7.65729 10.5598C7.68255 10.5923 7.7082 10.625 7.73425 10.658C7.73587 10.66 7.73749 10.6621 7.73912 10.6641L7.7414 10.6669C8.88196 12.0678 10.0711 13.1513 11.3791 13.9833L11.3803 13.9841C11.3825 13.9855 11.3847 13.9869 11.3868 13.9883C11.5139 14.0672 11.6627 14.1417 11.8203 14.2205L11.8256 14.2232C11.8434 14.2324 11.8613 14.2417 11.8793 14.2509C11.8832 14.2529 11.887 14.2549 11.8909 14.2569C11.9071 14.2652 11.9233 14.2736 11.9397 14.2819C12.0145 14.3204 12.0907 14.3594 12.1669 14.4005L13.5675 13.0043C14.0127 12.5591 14.5324 12.3243 15.0744 12.3218C15.0774 12.3218 15.0803 12.3218 15.0833 12.3218C15.6245 12.3218 16.1357 12.5539 16.5617 12.9885C16.5646 12.9915 16.5675 12.9945 16.5705 12.9975C16.5741 13.0012 16.5777 13.005 16.5813 13.0087L19.0146 15.4509C19.4623 15.8941 19.6972 16.4215 19.6972 16.9711C19.6972 17.124 19.6791 17.2759 19.6433 17.4253C19.553 17.8024 19.3504 18.1642 19.0433 18.4886C19.0384 18.4937 19.0335 18.4988 19.0286 18.5039L19.0279 18.5047C19.0229 18.51 19.0178 18.5152 19.0127 18.5205C18.8297 18.7114 18.6427 18.8942 18.4597 19.0688C18.4571 19.0713 18.4544 19.0739 18.4517 19.0764L18.3899 19.1362C18.3806 19.1452 18.3713 19.1542 18.3621 19.1631L18.3601 19.1651C18.1159 19.4013 17.884 19.6274 17.6798 19.8741L17.6761 19.8786C17.6739 19.8831 17.6706 19.8864 17.6672 19.8897C17.6639 19.8931 17.6606 19.8964 17.6584 19.9008C17.6532 19.9064 17.6481 19.912 17.6429 19.9175C16.9725 20.6367 16.1195 20.9989 15.1054 21L15.101 21C15.0135 21 14.9175 20.9957 14.8255 20.9913L14.8224 20.9912V20.9912C13.3062 20.8939 11.9481 20.3249 10.9296 19.8426L10.9245 19.8402L10.9214 19.8388C8.25734 18.551 5.92464 16.7241 3.9851 14.4111L3.98145 14.4067C3.9797 14.4046 3.97794 14.4026 3.97619 14.4005C2.37709 12.478 1.30482 10.6839 0.586811 8.74835L0.585565 8.745V8.745C0.293041 7.95606 -0.0881351 6.75049 0.0182375 5.45629V5.45629L0.0186593 5.45155C0.0904276 4.65134 0.41382 3.96152 0.980024 3.39532L2.48697 1.87508L2.49583 1.86621C2.50197 1.86032 2.50811 1.85448 2.51428 1.84866C2.95353 1.43451 3.46953 1.21468 4.00278 1.21468C4.00573 1.21468 4.00869 1.21469 4.01164 1.2147C4.5483 1.21715 5.05843 1.44236 5.4856 1.86427L5.48756 1.86621C5.49217 1.87047 5.49678 1.87472 5.50138 1.87899C5.50598 1.88325 5.51058 1.88751 5.51518 1.89178C5.7935 2.15028 6.06339 2.42459 6.32082 2.6906C6.32299 2.69292 6.32517 2.69524 6.32735 2.69756V2.69756C6.45836 2.837 6.59793 2.97658 6.73301 3.11166L7.943 4.32165L7.94521 4.32386C8.87302 5.25358 8.87302 6.45679 7.94521 7.38651L7.943 7.38872C7.88095 7.45078 7.8189 7.51393 7.75685 7.57709C7.69664 7.63838 7.63643 7.69966 7.57622 7.75993C7.57438 7.76178 7.57254 7.76362 7.5707 7.76546L7.47551 7.86201C7.24973 8.09113 7.01896 8.3253 6.77758 8.55596C6.77609 8.55738 6.7746 8.55881 6.7731 8.56023C6.76009 8.57266 6.74705 8.58507 6.73397 8.59748L6.73126 8.60005C6.72123 8.60956 6.71118 8.61906 6.70112 8.62855C6.64876 8.67793 6.59588 8.72711 6.54243 8.776C6.58408 8.86819 6.62816 8.96017 6.67495 9.05237L6.67617 9.05478L6.67698 9.05638L6.67823 9.05882C6.91874 9.53158 7.23069 10.0106 7.65342 10.5548ZM19.7822 9.45856L19.7832 9.46438C19.7837 9.46728 19.7842 9.47016 19.7848 9.47303C19.8393 9.75779 20.0883 9.95497 20.3717 9.95497C20.4035 9.95497 20.4318 9.95138 20.463 9.94744L20.4736 9.9461C20.7971 9.89735 21.0188 9.58709 20.9611 9.26354L20.9609 9.26211L20.9603 9.25883C20.9211 9.02942 20.8751 8.80205 20.8223 8.57695C20.3431 6.5338 19.3091 4.67736 17.801 3.16928L17.7997 3.16803C16.2916 1.66035 14.4352 0.626647 12.3922 0.147724C12.1698 0.095583 11.9451 0.0500164 11.7185 0.0111311C11.7161 0.010729 11.7138 0.0103276 11.7114 0.00992695L11.7067 0.00912211C11.3832 -0.0484964 11.0773 0.173113 11.0197 0.496663C10.9673 0.819804 11.1774 1.12143 11.4972 1.18537C11.5001 1.18595 11.503 1.1865 11.5059 1.18704L11.5117 1.18809C11.7272 1.22462 11.9408 1.26802 12.1521 1.31813C13.966 1.74826 15.6171 2.67361 16.9589 4.01139C18.3007 5.35327 19.223 7.00454 19.6524 8.81866C19.7024 9.02983 19.7457 9.24321 19.7822 9.45856ZM15.9793 9.64051C16.028 9.93303 16.2806 10.1369 16.5687 10.1369C16.6006 10.1369 16.6289 10.1333 16.66 10.1294L16.6707 10.128C16.9965 10.0752 17.213 9.76868 17.1637 9.4431L17.1627 9.43723V9.43723C17.1234 9.20602 17.0723 8.97756 17.0103 8.7537C16.695 7.61724 16.0915 6.58369 15.2435 5.73574L15.2413 5.73353C14.3938 4.88679 13.3611 4.28403 12.2257 3.96905C12.0018 3.90693 11.7739 3.856 11.5426 3.8166C11.5393 3.81606 11.5359 3.81554 11.5326 3.81506C11.5303 3.81473 11.5281 3.81442 11.5259 3.81412C11.2043 3.77084 10.9078 3.9861 10.8512 4.30415C10.7936 4.6277 11.0063 4.94238 11.3343 4.99557C11.3367 4.99598 11.3392 4.99638 11.3416 4.99679C11.3447 4.99732 11.3479 4.99786 11.351 4.99839C11.5601 5.03415 11.7657 5.08141 11.9672 5.13982C12.8786 5.40395 13.7062 5.89597 14.3925 6.58229L14.3947 6.58451C15.0824 7.27286 15.5717 8.10317 15.8362 9.01743C15.8941 9.21742 15.9412 9.42143 15.9772 9.62885C15.9778 9.632 15.9783 9.63514 15.9789 9.63828L15.9793 9.64051Z" fill="#2B356D"/>
</svg>
