<svg width="21" height="18" viewBox="0 0 21 18" fill="none" xmlns="http://www.w3.org/2000/svg">
<path fill-rule="evenodd" clip-rule="evenodd" d="M2.28161 0.133606C1.59803 0.440339 1.39189 0.981622 1.39189 2.4692V3.61137L1.0258 3.71155C0.5859 3.83202 0.11285 4.3434 0.0344612 4.78326C0.00392972 4.95458 -0.00871366 7.65213 0.00636475 10.7777C0.0333373 16.3468 0.0377391 16.4661 0.227015 16.7238C0.33322 16.8683 0.536451 17.075 0.678712 17.1829C0.935607 17.378 0.996576 17.3793 9.63351 17.3793C18.2704 17.3793 18.3314 17.378 18.5883 17.1829C19.0361 16.8431 19.1963 16.5348 19.2829 15.8475C19.3285 15.4853 19.7499 13.3464 20.2195 11.0942C21.1275 6.73927 21.1467 6.55767 20.7662 5.93153C20.5442 5.56643 19.8855 5.14237 19.5404 5.14237C19.3381 5.14237 19.287 5.08104 19.2015 4.73555C19.0214 4.00829 18.4236 3.61871 17.4879 3.61871C17.1053 3.61871 17.0456 3.59071 16.9956 3.38797C16.9081 3.03381 16.4726 2.56319 16.0527 2.3693C15.72 2.2156 15.4053 2.19417 13.4534 2.19236L11.2326 2.19027L10.3299 1.09513L9.42728 0L5.99493 0.00371389C3.35686 0.00657077 2.49758 0.0366632 2.28161 0.133606ZM9.95531 1.76174L10.858 2.85687H13.152C15.6432 2.85687 15.9197 2.90287 16.2192 3.36768L16.381 3.61871H9.26104H2.14113V2.39892C2.14113 1.49624 2.17569 1.13113 2.27393 0.994287C2.3999 0.819065 2.57906 0.806876 5.71574 0.759452C7.53574 0.731931 9.03103 0.699743 9.03871 0.68803C9.04639 0.676222 9.45884 1.15941 9.95531 1.76174ZM18.3434 4.571C18.5266 4.75726 18.5307 4.8884 18.5307 10.5228C18.5307 16.1572 18.5266 16.2884 18.3434 16.4746C18.1588 16.6623 18.0312 16.6651 9.6012 16.6651H1.04631L0.867895 16.4647C0.697537 16.2733 0.688265 16.0184 0.661573 10.8224C0.646214 7.82936 0.659138 5.23874 0.690232 5.06562C0.721325 4.89249 0.828653 4.66756 0.928864 4.56566C1.10653 4.38501 1.31734 4.38054 9.63351 4.38054C18.0312 4.38054 18.1588 4.3833 18.3434 4.571ZM2.25352 5.92325C2.08475 6.09485 2.11809 6.36111 2.32226 6.47225C2.43183 6.53186 3.34104 6.57081 4.62298 6.57081C5.90493 6.57081 6.81413 6.53186 6.9237 6.47225C7.12787 6.36111 7.16121 6.09485 6.99245 5.92325C6.83276 5.76088 2.4132 5.76088 2.25352 5.92325ZM19.8494 5.97144C19.9981 6.06076 20.1871 6.27798 20.2692 6.45406C20.4135 6.76336 20.3995 6.86402 19.8572 9.41035L19.2959 12.0465L19.2879 8.92773C19.2791 5.49043 19.2555 5.6148 19.8494 5.97144ZM2.30503 7.33931C2.1091 7.45653 2.09084 7.74308 2.26981 7.89411C2.36028 7.97039 3.07337 7.99515 4.67131 7.97715C6.71766 7.9542 6.95433 7.93506 7.04742 7.78498C7.12272 7.66347 7.12272 7.57319 7.04742 7.45168C6.95433 7.3016 6.72169 7.28284 4.70652 7.26322C3.30161 7.24951 2.40795 7.27779 2.30503 7.33931Z" fill="#2B356D"/>
</svg>
