<svg width="120" height="120" viewBox="0 0 120 120" fill="none" xmlns="http://www.w3.org/2000/svg">
<path d="M120 60C120 93.1371 93.1371 120 60 120C26.8629 120 0 93.1371 0 60C0 26.8629 26.8629 0 60 0C93.1371 0 120 26.8629 120 60Z" fill="white"/>
<path d="M77 42C77 51.3888 69.3888 59 60 59C50.6112 59 43 51.3888 43 42C43 32.6112 50.6112 25 60 25C69.3888 25 77 32.6112 77 42Z" fill="#C64692"/>
<path d="M22.4828 106.826C22.1653 104.932 22 102.985 22 101V100C22 80.67 37.67 65 57 65H63C82.33 65 98 80.67 98 100V101C98 102.985 97.8347 104.932 97.5172 106.826C87.2426 115.069 74.1971 120 60 120C45.8029 120 32.7574 115.069 22.4828 106.826Z" fill="#C64692"/>
</svg>
