<svg width="20" height="20" viewBox="0 0 20 20" fill="none" xmlns="http://www.w3.org/2000/svg">
<g clip-path="url(#clip0_2_5388)">
<path d="M9.9998 0.800781C4.92362 0.800781 0.799805 4.92459 0.799805 10.0008C0.799805 11.6324 1.24728 13.1551 1.99355 14.4844L0.814648 18.693C0.795814 18.7603 0.794963 18.8314 0.81218 18.8992C0.829397 18.967 0.864081 19.0291 0.912773 19.0793C0.961464 19.1294 1.02246 19.166 1.08969 19.1853C1.15691 19.2045 1.22801 19.2058 1.2959 19.1891L5.68418 18.1016C6.97366 18.79 8.43684 19.2008 9.9998 19.2008C15.076 19.2008 19.1998 15.077 19.1998 10.0008C19.1998 4.92459 15.076 0.800781 9.9998 0.800781ZM9.9998 1.60078C14.6436 1.60078 18.3998 5.35697 18.3998 10.0008C18.3998 14.6446 14.6436 18.4008 9.9998 18.4008C8.51101 18.4008 7.11665 18.0126 5.90449 17.3344C5.81584 17.2848 5.71166 17.2709 5.61309 17.2953L1.77012 18.2477L2.80059 14.5711C2.81533 14.5191 2.8194 14.4647 2.81255 14.4112C2.80571 14.3576 2.78808 14.306 2.76074 14.2594C2.02408 13.0102 1.5998 11.5568 1.5998 10.0008C1.5998 5.35697 5.35599 1.60078 9.9998 1.60078ZM6.65684 5.20078C6.40042 5.20078 6.03422 5.29618 5.7334 5.62031C5.55271 5.815 4.7998 6.54859 4.7998 7.83828C4.7998 9.18289 5.73236 10.3431 5.84512 10.4922H5.8459V10.493C5.8352 10.4789 5.98902 10.7017 6.19434 10.9688C6.39966 11.2358 6.68677 11.5866 7.04746 11.9664C7.76885 12.7259 8.78312 13.6037 10.042 14.1406C10.6217 14.3875 11.0791 14.5365 11.4256 14.6453C12.0677 14.847 12.6526 14.8163 13.092 14.7516C13.4209 14.7031 13.7826 14.5452 14.1404 14.3188C14.4983 14.0923 14.849 13.8107 15.0037 13.3828C15.1145 13.0761 15.1708 12.7926 15.1912 12.5594C15.2014 12.4428 15.2027 12.3398 15.1951 12.2445C15.1875 12.1492 15.1956 12.0762 15.1068 11.9305C14.9206 11.6247 14.7097 11.6167 14.4896 11.5078C14.3674 11.4473 14.0193 11.2773 13.6701 11.1109C13.3214 10.9447 13.0194 10.7976 12.8334 10.7312C12.7159 10.689 12.5724 10.6281 12.3654 10.6516C12.1584 10.675 11.954 10.8244 11.835 11.0008C11.7221 11.168 11.268 11.7041 11.1295 11.8617C11.1277 11.8606 11.1397 11.8661 11.085 11.8391C10.9137 11.7543 10.7043 11.6822 10.3943 11.5188C10.0844 11.3553 9.69671 11.1138 9.27246 10.7398V10.7391C8.64102 10.1832 8.19871 9.48522 8.05918 9.25078C8.06858 9.2396 8.05806 9.25314 8.07793 9.23359L8.07871 9.23281C8.22132 9.09235 8.3477 8.92459 8.45449 8.80156C8.60591 8.62713 8.67273 8.47336 8.74512 8.32969C8.88939 8.04336 8.80906 7.72828 8.72559 7.5625V7.56172C8.73135 7.57319 8.68043 7.46084 8.62559 7.33125C8.57058 7.20129 8.50047 7.0328 8.42559 6.85313C8.27582 6.49378 8.10862 6.09075 8.00918 5.85469V5.85391C7.89204 5.57585 7.73356 5.37554 7.52637 5.27891C7.31917 5.18227 7.13612 5.20974 7.12871 5.20937H7.12793C6.98007 5.20255 6.81782 5.20078 6.65684 5.20078ZM6.65684 6.00078C6.81105 6.00078 6.96309 6.00266 7.09043 6.00859C7.22143 6.01512 7.21328 6.01566 7.18809 6.00391C7.16249 5.99197 7.19722 5.98809 7.27168 6.16484C7.36904 6.39599 7.53707 6.80048 7.6873 7.16094C7.76242 7.34117 7.83272 7.51031 7.88887 7.64297C7.94501 7.77563 7.97544 7.8497 8.01074 7.92031V7.92109L8.01152 7.92188C8.04614 7.99017 8.04308 7.94645 8.03105 7.97031C7.94664 8.13784 7.93519 8.17898 7.8498 8.27734C7.7198 8.42712 7.58719 8.59414 7.51699 8.66328C7.45558 8.72361 7.34477 8.81759 7.27559 9.00156C7.20629 9.18581 7.23863 9.43861 7.3498 9.62734C7.49782 9.87862 7.98557 10.6725 8.74355 11.3398C9.22091 11.7607 9.66563 12.0392 10.0209 12.2266C10.3762 12.414 10.6655 12.5234 10.7303 12.5555C10.884 12.6316 11.0521 12.6906 11.2475 12.6672C11.4429 12.6437 11.6113 12.5252 11.7186 12.4039L11.7193 12.4031C11.8621 12.2413 12.2861 11.7571 12.4896 11.4586C12.4983 11.4616 12.4954 11.4593 12.5631 11.4836V11.4844H12.5639C12.5947 11.4954 12.9815 11.6685 13.3264 11.8328C13.6712 11.9971 14.0212 12.1679 14.135 12.2242C14.2991 12.3055 14.3766 12.3583 14.3967 12.3586C14.398 12.3938 14.3994 12.4319 14.3943 12.4898C14.3803 12.6505 14.3374 12.8729 14.2514 13.1109C14.2092 13.2275 13.9898 13.4678 13.7131 13.643C13.4364 13.8181 13.0995 13.9418 12.9748 13.9602C12.5998 14.0154 12.1545 14.0356 11.6654 13.882C11.3263 13.7756 10.9035 13.6378 10.3561 13.4047C9.24573 12.9312 8.30204 12.1254 7.62793 11.4156C7.29087 11.0607 7.02083 10.7304 6.82871 10.4805C6.63695 10.231 6.55322 10.1012 6.4834 10.0094L6.48262 10.0086C6.35869 9.8447 5.5998 8.78912 5.5998 7.83828C5.5998 6.83198 6.0672 6.43736 6.32012 6.16484C6.45289 6.02178 6.59805 6.00078 6.65684 6.00078Z" fill="#2B356D"/>
</g>
<defs>
<clipPath id="clip0_2_5388">
<rect width="20" height="20" fill="white"/>
</clipPath>
</defs>
</svg>
