<svg width="21" height="21" viewBox="0 0 21 21" fill="none" xmlns="http://www.w3.org/2000/svg">
<path d="M1 20L2.48984 15.0797L13.2799 4.22414L14.9052 2.58899L16.0763 1.41081C16.852 0.630407 18.1124 0.623173 18.897 1.39462L19.5683 2.0547C20.3581 2.83127 20.3663 4.10185 19.5867 4.8886L18.3363 6.15034L16.7562 7.74487L6.01129 18.5877L1 20Z" fill="white"/>
<path d="M2.48984 15.0797L1 20L6.01129 18.5877M2.48984 15.0797L6.01129 18.5877M2.48984 15.0797L13.2799 4.22414M6.01129 18.5877L16.7562 7.74487M18.3363 6.15034L19.5867 4.8886C20.3663 4.10185 20.3581 2.83127 19.5683 2.0547L18.897 1.39462C18.1124 0.623173 16.852 0.630407 16.0763 1.41081L14.9052 2.58899M18.3363 6.15034L14.9052 2.58899M18.3363 6.15034L16.7562 7.74487M14.9052 2.58899L13.2799 4.22414M13.2799 4.22414L16.7562 7.74487" stroke="#2B356D" stroke-width="1.5" stroke-linejoin="round"/>
</svg>
